<svg xmlns="http://www.w3.org/2000/svg" viewBox="0 0 215.84 215.84"><g id="Layer_2" data-name="Layer 2"><g id="Layer_1-2" data-name="Layer 1"><circle cx="107.92" cy="107.92" r="107.92" style="fill:#2a2a2a"/><path d="M87.29,147.11c11-7.68,34.44-21.77,80-40.57a10.46,10.46,0,0,0,6.48-7.61c.49-2.86-.62-5.42-7-4.22,0,0-56,22.68-81.2,50.44a1.32,1.32,0,0,0,1.74,2" style="fill:#d7b379"/><path d="M68.68,115.33c-.35.64-4.56-14.33-1.42-16.89S69,114.8,68.68,115.33" style="fill:#d7b379;fill-rule:evenodd"/><path d="M79.72,138.81c-.33,1.63,1.07,2.77,1.58,1.19,4.36-13.64,15.42-35,31.2-64.24a16.16,16.16,0,0,0,2-9.17c-.33-3.38-3.72-7.61-7.28-1.45-4.14,7.16-18.33,28.08-27.5,73.67" style="fill:#d7b379;fill-rule:evenodd"/><path d="M75.09,139.81a.51.51,0,0,0,1,0c1.26-12.25,5.06-50.35,5.2-64.68,0-5.29-5-12.92-7.52-2.48-3.68,15.33-.5,53.65,1.31,67.17" style="fill:#d7b379;fill-rule:evenodd"/><path d="M70.26,145.4a.49.49,0,0,0,.95-.26c-2.34-12.41-9.9-38.48-15.88-46.19-2-2.53-9.53-4.51-5.69,4.72,0,0,14.23,25.28,20.62,41.73" style="fill:#d7b379;fill-rule:evenodd"/><path d="M66.86,146.56a112.87,112.87,0,0,0-19.21-29.3A4.93,4.93,0,0,0,44,115.35c-1.39.1-3,1.38-1.29,5,1.86,3.81,16.26,15.3,23.74,26.85.32.5.69,0,.42-.6" style="fill:#d7b379;fill-rule:evenodd"/><path d="M122.9,87.92c5.77-6,8.76,1.43,4.93,5.07-9.81,9.32-32.22,34.06-39.76,43.89-1.32,1.71-3,1.24-1.72-.71,9.26-14,17.88-28.73,36.55-48.25" style="fill:#d7b379"/><path d="M88,149.54a59,59,0,0,1,14-4.22,115.67,115.67,0,0,1,17-1.75,114.19,114.19,0,0,1,16.94.75c4.14.49,10.55.66,12.52,5.19a3.29,3.29,0,0,1,.23.74c1.35,7.56-20,.94-23.1.18-7.92-1.91-15.7-1.94-23.84-1.85a49,49,0,0,0-13,2.1c-1.1.07-1.84-.64-.77-1.14" style="fill:#d7b379"/></g></g></svg>